<svg xmlns="http://www.w3.org/2000/svg" viewBox="0 0 900 560"><defs><linearGradient id="bg" x1="0" y1="0" x2="1" y2="1"><stop stop-color="#f5fbff"/><stop offset="1" stop-color="#dbeeff"/></linearGradient></defs><rect width="900" height="560" rx="28" fill="url(#bg)"/><rect x="280" y="90" width="300" height="390" rx="22" fill="#f8fafc" stroke="#16304d" stroke-width="8"/><rect x="330" y="140" width="200" height="55" rx="10" fill="#e8f4ff" stroke="#0b5cab" stroke-width="4"/><text x="430" y="176" text-anchor="middle" font-family="Arial" font-size="24" font-weight="700" fill="#0b5cab">FOX ESS</text><g fill="#0b78c8"><rect x="335" y="225" width="190" height="38" rx="8"/><rect x="335" y="275" width="190" height="38" rx="8"/><rect x="335" y="325" width="190" height="38" rx="8"/><rect x="335" y="375" width="190" height="38" rx="8"/></g><path d="M180 285h75" stroke="#0b78c8" stroke-width="12" stroke-linecap="round"/><path d="M645 285h75" stroke="#0b78c8" stroke-width="12" stroke-linecap="round"/><path d="M235 285l-25-25m25 25l-25 25M695 285l25-25m-25 25l25 25" stroke="#0b78c8" stroke-width="9" fill="none" stroke-linecap="round"/><text x="450" y="525" text-anchor="middle" font-family="Arial" font-size="28" font-weight="700" fill="#16304d">ACCUMULO ENERGETICO</text></svg>
